<svg width="34" height="34" viewBox="0 0 34 34" fill="none" xmlns="http://www.w3.org/2000/svg">
<path d="M16.2492 5.43999C16.4484 5.24102 16.7184 5.12926 17 5.12926C17.2816 5.12926 17.5516 5.24102 17.7508 5.43999L30.0617 17.7508C30.1589 17.8552 30.2762 17.9389 30.4066 17.997C30.5369 18.0551 30.6776 18.0863 30.8203 18.0888C30.9629 18.0913 31.1046 18.0651 31.2369 18.0117C31.3692 17.9582 31.4894 17.8787 31.5903 17.7778C31.6912 17.6769 31.7707 17.5567 31.8242 17.4244C31.8776 17.2921 31.9038 17.1504 31.9013 17.0078C31.8988 16.8651 31.8676 16.7244 31.8095 16.5941C31.7514 16.4637 31.6677 16.3464 31.5633 16.2492L19.2539 3.93833C18.9579 3.64233 18.6065 3.40754 18.2198 3.24735C17.8331 3.08716 17.4186 3.00471 17 3.00471C16.5814 3.00471 16.1669 3.08716 15.7802 3.24735C15.3935 3.40754 15.0421 3.64233 14.7461 3.93833L2.43524 16.2492C2.24179 16.4496 2.13482 16.7181 2.13737 16.9967C2.13992 17.2752 2.25179 17.5417 2.44888 17.7386C2.64597 17.9355 2.91251 18.0471 3.1911 18.0494C3.46969 18.0517 3.73803 17.9445 3.93833 17.7508L16.2492 5.43999Z" fill="black"/>
<path d="M17 7.69532L28.5586 19.2539C28.6011 19.2964 28.6436 19.3361 28.6875 19.3757V28.1562C28.6875 29.6225 27.4975 30.8125 26.0312 30.8125H21.25C20.9682 30.8125 20.698 30.7005 20.4987 30.5013C20.2994 30.302 20.1875 30.0318 20.1875 29.75V23.375C20.1875 23.0932 20.0756 22.8229 19.8763 22.6237C19.677 22.4244 19.4068 22.3125 19.125 22.3125H14.875C14.5932 22.3125 14.323 22.4244 14.1237 22.6237C13.9244 22.8229 13.8125 23.0932 13.8125 23.375V29.75C13.8125 30.0318 13.7006 30.302 13.5013 30.5013C13.302 30.7005 13.0318 30.8125 12.75 30.8125H7.96875C7.26427 30.8125 6.58864 30.5326 6.0905 30.0345C5.59235 29.5363 5.3125 28.8607 5.3125 28.1562V19.3757C5.35657 19.3363 5.39956 19.2957 5.44142 19.2539L17 7.69249V7.69532Z" fill="black"/>
</svg>
