<svg width="34" height="34" viewBox="0 0 34 34" fill="none" xmlns="http://www.w3.org/2000/svg">
<g clip-path="url(#clip0_1_71)">
<path d="M29.75 17V26.9167C29.75 27.6681 29.4515 28.3888 28.9201 28.9201C28.3888 29.4515 27.6681 29.75 26.9167 29.75H7.08333C6.33189 29.75 5.61122 29.4515 5.07986 28.9201C4.54851 28.3888 4.25 27.6681 4.25 26.9167V17H29.75ZM22.6667 4.25C23.0424 4.25 23.4027 4.39926 23.6684 4.66493C23.9341 4.93061 24.0833 5.29094 24.0833 5.66667V7.08333H26.9167C27.6681 7.08333 28.3888 7.38184 28.9201 7.9132C29.4515 8.44455 29.75 9.16522 29.75 9.91667V14.1667H4.25V9.91667C4.25 9.16522 4.54851 8.44455 5.07986 7.9132C5.61122 7.38184 6.33189 7.08333 7.08333 7.08333H9.91667V5.66667C9.91667 5.29094 10.0659 4.93061 10.3316 4.66493C10.5973 4.39926 10.9576 4.25 11.3333 4.25C11.7091 4.25 12.0694 4.39926 12.3351 4.66493C12.6007 4.93061 12.75 5.29094 12.75 5.66667V7.08333H21.25V5.66667C21.25 5.29094 21.3993 4.93061 21.6649 4.66493C21.9306 4.39926 22.2909 4.25 22.6667 4.25Z" fill="black"/>
</g>
<defs>
<clipPath id="clip0_1_71">
<rect width="34" height="34" fill="white"/>
</clipPath>
</defs>
</svg>
