<svg width="34" height="34" viewBox="0 0 34 34" fill="none" xmlns="http://www.w3.org/2000/svg">
<g clip-path="url(#clip0_1_61)">
<path fill-rule="evenodd" clip-rule="evenodd" d="M22.0802 3.90575C22.6115 3.37458 23.332 3.07619 24.0833 3.07619C24.8346 3.07619 25.5552 3.37458 26.0865 3.90575L30.0943 7.9135C30.6254 8.44483 30.9238 9.16537 30.9238 9.91667C30.9238 10.668 30.6254 11.3885 30.0943 11.9198L26.0865 15.9276C25.5552 16.4588 24.8346 16.7571 24.0833 16.7571C23.332 16.7571 22.6115 16.4588 22.0802 15.9276L18.0724 11.9198C17.5412 11.3885 17.2429 10.668 17.2429 9.91667C17.2429 9.16537 17.5412 8.44483 18.0724 7.9135L22.0802 3.90575ZM12.75 4.25C13.5014 4.25 14.2221 4.54851 14.7535 5.07986C15.2848 5.61122 15.5833 6.33189 15.5833 7.08333V12.75C15.5833 13.5014 15.2848 14.2221 14.7535 14.7535C14.2221 15.2848 13.5014 15.5833 12.75 15.5833H7.08333C6.33189 15.5833 5.61122 15.2848 5.07986 14.7535C4.54851 14.2221 4.25 13.5014 4.25 12.75V7.08333C4.25 6.33189 4.54851 5.61122 5.07986 5.07986C5.61122 4.54851 6.33189 4.25 7.08333 4.25H12.75ZM29.75 21.25C29.75 20.4986 29.4515 19.7779 28.9201 19.2465C28.3888 18.7152 27.6681 18.4167 26.9167 18.4167H21.25C20.4986 18.4167 19.7779 18.7152 19.2465 19.2465C18.7152 19.7779 18.4167 20.4986 18.4167 21.25V26.9167C18.4167 27.6681 18.7152 28.3888 19.2465 28.9201C19.7779 29.4515 20.4986 29.75 21.25 29.75H26.9167C27.6681 29.75 28.3888 29.4515 28.9201 28.9201C29.4515 28.3888 29.75 27.6681 29.75 26.9167V21.25ZM12.75 18.4167C13.5014 18.4167 14.2221 18.7152 14.7535 19.2465C15.2848 19.7779 15.5833 20.4986 15.5833 21.25V26.9167C15.5833 27.6681 15.2848 28.3888 14.7535 28.9201C14.2221 29.4515 13.5014 29.75 12.75 29.75H7.08333C6.33189 29.75 5.61122 29.4515 5.07986 28.9201C4.54851 28.3888 4.25 27.6681 4.25 26.9167V21.25C4.25 20.4986 4.54851 19.7779 5.07986 19.2465C5.61122 18.7152 6.33189 18.4167 7.08333 18.4167H12.75Z" fill="black"/>
</g>
<defs>
<clipPath id="clip0_1_61">
<rect width="34" height="34" fill="white"/>
</clipPath>
</defs>
</svg>
