<svg width="735" height="859" viewBox="0 0 735 859" fill="none" xmlns="http://www.w3.org/2000/svg">
<rect width="735" height="859" rx="15" fill="#ECBC76"/>
<path d="M644.889 513.564H435.717V392.52H644.889V513.564ZM436.993 512.288H643.612V393.797H436.993V512.288Z" fill="#E0E0E0"/>
<path d="M601.737 457.062H463.731V461.108H601.737V457.062Z" fill="#F0F0F0"/>
<path d="M611.245 472.148H463.731V476.564H611.245V472.148Z" fill="#F0F0F0"/>
<path d="M611.245 487.413H463.731V491.829H611.245V487.413Z" fill="#F0F0F0"/>
<path d="M511.963 435.149H463.731V445.653H511.963V435.149Z" fill="#F0F0F0"/>
<path d="M644.251 393.159H436.393V412.431H644.251V393.159Z" fill="#E0E0E0"/>
<path d="M628.259 409.546C627.991 409.291 630.671 406.062 634.232 402.335C637.793 398.608 640.92 395.788 641.175 396.03C641.43 396.273 638.763 399.514 635.202 403.254C631.641 406.994 628.514 409.801 628.259 409.546Z" fill="white"/>
<path d="M641.201 409.546C640.945 409.801 637.831 406.994 634.257 403.254C630.684 399.515 628.016 396.286 628.284 396.03C628.552 395.775 631.654 398.583 635.227 402.335C638.801 406.087 641.443 409.291 641.201 409.546Z" fill="white"/>
<path d="M387.499 153.458H179.641V273.238H387.499V153.458Z" fill="#E6E6E6"/>
<path d="M344.998 217.375H206.992V221.42H344.998V217.375Z" fill="#F0F0F0"/>
<path d="M354.506 232.46H206.992V236.876H354.506V232.46Z" fill="#F0F0F0"/>
<path d="M354.506 247.725H206.992V252.141H354.506V247.725Z" fill="#F0F0F0"/>
<path d="M255.223 195.461H206.992V205.965H255.223V195.461Z" fill="#F0F0F0"/>
<path d="M387.499 153.458H179.641V172.73H387.499V153.458Z" fill="#E0E0E0"/>
<path d="M370.805 169.756C370.537 169.514 373.217 166.272 376.778 162.545C380.339 158.818 383.465 155.998 383.721 156.253C383.976 156.508 381.308 159.737 377.748 163.464C374.187 167.191 371.06 169.986 370.805 169.756Z" fill="white"/>
<path d="M383.721 169.756C383.466 170.011 380.351 167.203 376.778 163.464C373.204 159.724 370.537 156.508 370.805 156.253C371.073 155.998 374.174 158.805 377.748 162.545C381.321 166.284 383.989 169.513 383.721 169.756Z" fill="white"/>
<path d="M308.777 375.967H99.6431V254.91H308.777V375.967ZM100.919 374.69H307.5V256.187H100.919V374.69Z" fill="#E0E0E0"/>
<path d="M265.638 319.465H127.632V323.511H265.638V319.465Z" fill="#F0F0F0"/>
<path d="M275.146 334.551H127.632V338.967H275.146V334.551Z" fill="#F0F0F0"/>
<path d="M275.146 349.816H127.632V354.232H275.146V349.816Z" fill="#F0F0F0"/>
<path d="M175.864 297.551H127.632V308.055H175.864V297.551Z" fill="#F0F0F0"/>
<path d="M308.139 255.548H100.281V274.82H308.139V255.548Z" fill="#E0E0E0"/>
<path d="M550.137 403.701H304.705V623.428H550.137V403.701Z" fill="#E6E6E6"/>
<path d="M317.047 334.487H124.786L124.786 534.24H317.047V334.487Z" fill="#F0F0F0"/>
<path d="M317.047 334.487H124.786V356.248H317.047V334.487Z" fill="#E0E0E0"/>
<path d="M140.663 345.144C140.628 345.934 140.362 346.695 139.899 347.334C139.435 347.974 138.793 348.463 138.054 348.741C137.315 349.019 136.51 349.074 135.74 348.898C134.969 348.723 134.268 348.326 133.721 347.755C133.175 347.185 132.808 346.466 132.667 345.689C132.525 344.912 132.615 344.11 132.924 343.384C133.234 342.657 133.751 342.038 134.409 341.602C135.068 341.166 135.84 340.933 136.63 340.933C137.723 340.959 138.76 341.417 139.516 342.207C140.271 342.996 140.684 344.052 140.663 345.144V345.144Z" fill="white"/>
<path d="M157.038 345.144C157.006 345.937 156.741 346.703 156.277 347.346C155.812 347.99 155.169 348.482 154.426 348.763C153.684 349.044 152.876 349.1 152.102 348.924C151.328 348.749 150.623 348.35 150.074 347.777C149.525 347.204 149.157 346.482 149.015 345.701C148.874 344.92 148.965 344.115 149.277 343.385C149.589 342.656 150.109 342.035 150.772 341.598C151.435 341.162 152.212 340.931 153.005 340.933C154.098 340.959 155.135 341.417 155.891 342.207C156.646 342.996 157.059 344.052 157.038 345.144V345.144Z" fill="white"/>
<path d="M173.413 345.144C173.38 345.937 173.115 346.703 172.651 347.346C172.186 347.99 171.543 348.482 170.801 348.763C170.058 349.044 169.25 349.1 168.476 348.924C167.702 348.749 166.997 348.35 166.448 347.777C165.899 347.204 165.531 346.482 165.389 345.701C165.248 344.92 165.339 344.115 165.651 343.385C165.964 342.656 166.484 342.035 167.147 341.598C167.81 341.162 168.586 340.931 169.38 340.933C170.472 340.959 171.509 341.417 172.265 342.207C173.021 342.996 173.433 344.052 173.413 345.144V345.144Z" fill="white"/>
<path d="M617.436 197.145H372.004V441.76H617.436V197.145Z" fill="#F0F0F0"/>
<path d="M617.436 197.145H372.004V225.798H617.436V197.145Z" fill="#E0E0E0"/>
<path d="M392.91 211.185C392.865 212.226 392.515 213.232 391.903 214.076C391.292 214.921 390.446 215.567 389.47 215.935C388.495 216.303 387.433 216.376 386.416 216.145C385.399 215.915 384.472 215.39 383.751 214.638C383.029 213.885 382.545 212.937 382.357 211.912C382.17 210.886 382.288 209.828 382.696 208.869C383.105 207.909 383.787 207.091 384.656 206.516C385.526 205.941 386.545 205.634 387.588 205.633C389.029 205.666 390.398 206.269 391.395 207.31C392.393 208.35 392.937 209.743 392.91 211.185V211.185Z" fill="white"/>
<path d="M412.909 207.432C413.617 208.201 414.083 209.16 414.249 210.191C414.415 211.223 414.274 212.28 413.843 213.232C413.412 214.183 412.711 214.987 411.827 215.543C410.943 216.099 409.914 216.382 408.87 216.358C407.826 216.334 406.812 216.003 405.954 215.406C405.097 214.809 404.434 213.974 404.048 213.003C403.663 212.032 403.571 210.97 403.785 209.947C403.999 208.925 404.509 207.988 405.252 207.254C406.292 206.264 407.682 205.727 409.117 205.76C410.553 205.794 411.917 206.395 412.909 207.432V207.432Z" fill="white"/>
<path d="M436.023 211.185C435.978 212.226 435.628 213.232 435.017 214.076C434.405 214.921 433.559 215.567 432.584 215.935C431.608 216.303 430.546 216.376 429.529 216.145C428.512 215.915 427.585 215.39 426.864 214.638C426.142 213.885 425.658 212.937 425.47 211.912C425.283 210.886 425.401 209.828 425.81 208.869C426.218 207.909 426.9 207.091 427.769 206.516C428.639 205.941 429.658 205.634 430.701 205.633C432.142 205.666 433.511 206.269 434.508 207.31C435.506 208.35 436.051 209.743 436.023 211.185V211.185Z" fill="white"/>
<path d="M564.419 688.327C564.419 688.506 475.793 688.659 366.504 688.659C257.215 688.659 168.551 688.506 168.551 688.327C168.551 688.148 257.164 687.995 366.504 687.995C475.844 687.995 564.419 688.161 564.419 688.327Z" fill="#263238"/>
<path d="M478.065 532.083C458.346 518.312 453.879 492.748 454.658 469.762C454.785 465.933 454.364 461.874 456.189 458.518C458.014 455.161 462.277 452.851 465.71 454.459C468.556 455.799 469.794 459.117 471.39 461.861C473.518 465.516 476.638 468.494 480.388 470.451C482.825 471.727 485.85 472.493 488.262 471.166C491.581 469.341 491.964 464.784 491.938 460.955C491.938 453.834 491.896 446.72 491.81 439.616C491.581 435.801 491.969 431.974 492.959 428.282C494.146 424.657 496.788 421.301 500.4 420.28C504.012 419.259 508.517 421.365 509.334 425.091C509.475 426.67 509.513 428.256 509.449 429.839C509.551 431.435 510.291 433.183 511.784 433.668C513.278 434.153 514.835 433.043 515.983 431.92C519.914 428.091 522.595 423.1 525.083 418.174C527.572 413.247 530.01 408.18 533.584 403.981C537.157 399.782 542.096 396.451 547.623 396.132C553.149 395.813 558.905 399.208 560.284 404.569C561.662 409.929 558.535 415.404 555.178 419.756C550.113 426.217 544.143 431.912 537.451 436.667C536.144 437.381 535.102 438.495 534.477 439.845C533.647 442.398 536.06 444.951 538.574 445.755C541.42 446.699 544.509 446.405 547.508 446.763C550.507 447.12 553.698 448.422 554.834 451.23C556.391 455.135 553.124 459.219 549.92 461.9C543.488 467.26 536.183 471.478 528.325 474.369C525.517 475.39 522.569 476.296 520.297 478.262C518.026 480.227 516.673 483.661 518.038 486.353C519.404 489.046 522.914 489.902 525.862 489.353C528.81 488.804 531.427 487.221 534.234 486.162C539.48 484.184 546.244 484.541 549.55 489.072C550.574 490.633 551.222 492.41 551.444 494.263C551.665 496.117 551.454 497.996 550.826 499.755C549.549 503.253 547.583 506.461 545.045 509.186C536.686 519.174 525.824 526.763 513.571 531.177C501.408 535.389 490.139 536.537 478.052 532.109" fill="#FD7401"/>
<path d="M554.668 399.285C554.668 399.285 554.553 399.412 554.298 399.642L553.162 400.65C552.166 401.544 550.699 402.846 548.848 404.569C543.601 409.44 538.729 414.701 534.273 420.305C531.427 423.841 528.478 427.848 525.339 432.2C522.199 436.552 518.957 441.249 515.741 446.24C512.312 451.502 509.172 456.947 506.335 462.551C504.854 465.473 503.552 468.524 502.212 471.638L498.256 481.146C493.04 493.123 488.498 505.382 484.65 517.865C481.551 528.079 479.414 538.561 478.269 549.173C477.527 556.334 477.407 563.547 477.912 570.729C478.116 573.282 478.307 575.235 478.486 576.562C478.562 577.2 478.614 577.711 478.665 578.081V578.604C478.61 578.438 478.571 578.267 478.55 578.093C478.486 577.723 478.409 577.226 478.307 576.587C478.077 575.311 477.835 573.295 477.605 570.742C476.989 563.546 477.032 556.309 477.733 549.122C478.807 538.464 480.897 527.934 483.974 517.674C487.79 505.155 492.319 492.866 497.541 480.865L501.6 471.395C502.94 468.294 504.254 465.218 505.748 462.283C508.605 456.662 511.77 451.204 515.23 445.933C518.498 440.828 521.791 436.208 524.892 431.894C527.993 427.58 530.993 423.547 533.826 420.024C538.327 414.435 543.265 409.211 548.593 404.403C550.482 402.705 551.988 401.429 553.009 400.574L554.196 399.616C554.341 399.49 554.499 399.379 554.668 399.285V399.285Z" fill="#263238"/>
<path d="M505.914 462.257C505.734 461.731 505.61 461.188 505.544 460.636C505.34 459.577 505.11 458.084 504.842 456.144C504.293 452.315 503.731 447.069 503.132 441.262C502.532 435.455 501.855 430.197 501.294 426.406C501 424.517 500.745 422.998 500.566 421.939C500.427 421.397 500.354 420.84 500.349 420.28C500.569 420.791 500.728 421.327 500.821 421.875C501.102 422.922 501.421 424.428 501.779 426.329C502.506 430.158 503.221 435.366 503.821 441.185C504.421 447.005 504.931 452.111 505.327 456.08C505.518 457.867 505.684 459.385 505.812 460.598C505.911 461.145 505.945 461.702 505.914 462.257V462.257Z" fill="#263238"/>
<path d="M555.025 453.093C554.404 453.228 553.772 453.305 553.136 453.323C551.86 453.438 550.048 453.591 547.802 453.846C543.309 454.331 537.132 455.225 530.355 456.501C523.577 457.777 517.49 459.219 513.112 460.33C510.929 460.891 509.168 461.402 508.007 461.747C507.387 461.967 506.745 462.121 506.092 462.206C506.682 461.909 507.297 461.666 507.93 461.479C509.13 461.057 510.866 460.47 513.035 459.845C517.387 458.569 523.475 457.05 530.278 455.748C536.041 454.646 541.855 453.837 547.699 453.323C549.958 453.132 551.784 453.055 553.06 453.029C553.716 452.985 554.374 453.006 555.025 453.093Z" fill="#263238"/>
<path d="M484.6 516.78C484.464 516.596 484.352 516.394 484.268 516.18L483.425 514.406C482.698 512.862 481.715 510.578 480.541 507.782C478.167 502.167 475.142 494.305 471.926 485.575C468.71 476.845 465.749 468.983 463.502 463.304C462.405 460.547 461.499 458.288 460.822 456.603L460.107 454.778C460.008 454.567 459.94 454.344 459.903 454.114C460.039 454.299 460.151 454.501 460.235 454.714L461.077 456.488C461.792 458.033 462.788 460.317 463.962 463.112C466.336 468.728 469.361 476.59 472.577 485.32C475.793 494.05 478.754 501.911 481 507.591C482.098 510.348 483.004 512.607 483.668 514.292C483.961 515.019 484.204 515.568 484.395 516.117C484.494 516.327 484.563 516.551 484.6 516.78V516.78Z" fill="#263238"/>
<path d="M549.793 495.76C549.588 495.877 549.369 495.967 549.142 496.028L547.253 496.666L540.272 498.925C534.375 500.839 526.232 503.571 517.298 506.583C508.364 509.595 500.183 512.275 494.248 514.062C491.287 514.968 488.875 515.657 487.203 516.117L485.276 516.614C485.052 516.686 484.821 516.733 484.587 516.755C484.791 516.638 485.01 516.547 485.238 516.487L487.127 515.849L494.108 513.59C500.004 511.675 508.147 508.944 517.081 505.932C526.015 502.92 534.184 500.24 540.118 498.453C543.092 497.547 545.492 496.857 547.176 496.398L549.103 495.9C549.328 495.829 549.559 495.782 549.793 495.76V495.76Z" fill="#263238"/>
<path d="M523.194 186.169L516.621 188.518L513.8 179.928C508.619 164.089 492.103 155.679 476.928 161.026C461.753 166.374 453.674 183.744 458.856 199.583L461.677 208.173L455.078 210.534C452.562 211.51 450.519 213.418 449.373 215.861C448.227 218.305 448.067 221.096 448.926 223.654L467.216 279.543C467.595 280.809 468.226 281.987 469.069 283.005C469.913 284.023 470.953 284.861 472.126 285.469C473.3 286.078 474.585 286.444 475.903 286.546C477.221 286.649 478.546 286.485 479.8 286.065L547.916 261.7C550.465 260.726 552.537 258.801 553.697 256.33C554.856 253.86 555.012 251.036 554.131 248.452L535.829 192.564C535.44 191.301 534.8 190.129 533.948 189.119C533.096 188.109 532.049 187.28 530.869 186.684C529.69 186.087 528.403 185.734 527.084 185.645C525.765 185.557 524.442 185.735 523.194 186.169V186.169ZM471.274 195.103C469.877 190.985 470.128 186.486 471.974 182.548C473.82 178.611 477.119 175.54 481.178 173.981C483.183 173.295 485.305 173.02 487.418 173.172C489.531 173.324 491.592 173.9 493.478 174.867C495.363 175.833 497.035 177.168 498.393 178.795C499.751 180.421 500.768 182.304 501.382 184.331L504.19 192.921L474.082 203.693L471.274 195.103ZM509.563 244.7L514.234 258.969C514.32 259.255 514.293 259.563 514.157 259.83C514.022 260.096 513.789 260.3 513.507 260.399L506.96 262.734C506.699 262.806 506.421 262.775 506.183 262.647C505.945 262.518 505.766 262.302 505.683 262.045L500.974 247.84C498.377 247.698 495.885 246.767 493.832 245.17C491.78 243.574 490.263 241.388 489.487 238.906C488.377 235.624 488.58 232.041 490.052 228.905C491.525 225.77 494.153 223.325 497.387 222.084C498.984 221.539 500.674 221.32 502.358 221.442C504.041 221.563 505.682 222.022 507.184 222.792C508.686 223.561 510.017 224.625 511.099 225.92C512.181 227.215 512.991 228.714 513.481 230.329C514.303 232.85 514.37 235.557 513.677 238.116C512.983 240.675 511.558 242.977 509.576 244.738L509.563 244.7Z" fill="#FD7401"/>
<path d="M516.328 188.365C516.328 188.543 504.139 193.125 488.977 198.575C473.814 204.025 461.447 208.402 461.383 208.275C461.319 208.147 473.572 203.527 488.747 198.064C503.922 192.602 516.264 188.199 516.328 188.365Z" fill="#263238"/>
<path d="M530.801 190.713C530.857 190.824 530.904 190.939 530.941 191.057C531.043 191.313 531.158 191.645 531.311 192.053C531.643 192.985 532.103 194.274 532.677 195.882L537.578 210.151C539.62 216.2 542.058 223.373 544.763 231.337C546.04 235.332 547.546 239.493 548.95 243.871C549.701 246.126 550.026 248.503 549.907 250.877C549.799 252.112 549.447 253.314 548.873 254.413C548.26 255.508 547.441 256.474 546.461 257.259C544.489 258.698 542.3 259.814 539.977 260.564L533.404 262.926L520.961 267.38L499.889 274.884L485.658 279.888L481.829 281.164L480.808 281.496C480.699 281.544 480.583 281.574 480.464 281.585C480.464 281.585 480.566 281.585 480.783 281.432L481.778 281.036L485.607 279.594L499.761 274.387L520.795 266.729L533.213 262.236L539.786 259.862C542.043 259.143 544.168 258.061 546.078 256.659C546.99 255.931 547.752 255.034 548.324 254.017C548.865 253.001 549.191 251.884 549.282 250.737C549.399 248.449 549.087 246.159 548.363 243.985C546.984 239.646 545.529 235.447 544.215 231.452C541.56 223.475 539.109 216.277 537.169 210.227C535.23 204.178 533.596 199.315 532.473 195.895C531.937 194.223 531.528 192.921 531.196 191.976L530.89 190.955C530.852 190.878 530.822 190.797 530.801 190.713V190.713Z" fill="#263238"/>
<path d="M494.86 173.113C494.86 173.113 494.184 172.781 492.933 172.27C491.15 171.585 489.264 171.206 487.355 171.147C484.526 171.05 481.71 171.582 479.111 172.704C475.95 174.102 473.247 176.362 471.312 179.226C469.365 182.082 468.32 185.457 468.313 188.913C468.34 191.746 468.769 194.561 469.589 197.273C470.253 199.596 470.942 201.447 471.402 202.736C471.673 203.39 471.895 204.064 472.065 204.752C471.703 204.14 471.399 203.495 471.159 202.825C470.636 201.549 469.883 199.736 469.143 197.401C468.234 194.66 467.739 191.8 467.675 188.913C467.641 185.326 468.71 181.815 470.738 178.856C472.74 175.888 475.553 173.557 478.843 172.143C481.523 171.014 484.427 170.517 487.33 170.688C489.28 170.787 491.196 171.241 492.984 172.028C493.462 172.248 493.923 172.504 494.362 172.794C494.544 172.874 494.712 172.981 494.86 173.113V173.113Z" fill="#263238"/>
<path d="M495.448 223.054C495.651 222.931 495.865 222.824 496.086 222.735C496.725 222.447 497.386 222.212 498.064 222.033C499.14 221.716 500.249 221.527 501.37 221.472C502.893 221.39 504.418 221.62 505.849 222.148C509.117 223.297 512.116 226.628 513.596 231.082C514.306 233.472 514.306 236.018 513.596 238.408C512.809 241.002 511.398 243.364 509.487 245.287L509.563 244.943C511.261 249.601 513.111 254.655 515.026 259.926L515.141 260.245L514.822 260.36L511.899 261.33L505.517 263.462L505.198 263.564L505.096 263.245C503.348 257.961 501.433 253.034 499.991 248.197L500.272 248.414C497.777 248.207 495.398 247.27 493.431 245.721C491.651 244.351 490.192 242.608 489.155 240.616C488.22 238.849 487.754 236.871 487.803 234.873C487.862 232.83 488.372 230.825 489.296 229.003C490.221 227.18 491.537 225.585 493.15 224.33C493.814 223.791 494.56 223.361 495.358 223.054C494.637 223.482 493.939 223.946 493.265 224.445C491.493 225.945 490.135 227.874 489.321 230.048C488.623 231.688 488.296 233.462 488.365 235.242C488.433 237.023 488.895 238.767 489.717 240.348C490.737 242.265 492.161 243.937 493.89 245.249C495.767 246.722 498.035 247.609 500.412 247.802H500.629L500.693 247.993C502.097 252.741 504.024 257.706 505.798 263.015L505.377 262.811L511.759 260.679L514.669 259.697L514.464 260.131C512.563 254.859 510.725 249.793 509.04 245.134V244.943L509.193 244.789C511.049 242.946 512.432 240.683 513.226 238.191C513.903 235.904 513.903 233.471 513.226 231.184C511.835 226.896 508.964 223.641 505.849 222.493C504.471 221.961 502.999 221.714 501.523 221.765C500.42 221.79 499.324 221.94 498.255 222.212C496.354 222.684 495.46 223.118 495.448 223.054Z" fill="#263238"/>
<path d="M455.997 591.571L328.508 590.984C321.146 590.944 314.101 587.983 308.92 582.752C303.739 577.52 300.846 570.447 300.876 563.084L302.229 243.488C302.244 239.84 302.978 236.231 304.389 232.867C305.799 229.504 307.859 226.451 310.45 223.883C313.041 221.316 316.113 219.284 319.489 217.905C322.866 216.525 326.482 215.825 330.129 215.843L457.605 216.43C464.968 216.467 472.014 219.425 477.198 224.654C482.381 229.883 485.277 236.955 485.25 244.317L483.897 563.901C483.882 567.55 483.148 571.16 481.738 574.525C480.328 577.891 478.269 580.945 475.678 583.515C473.087 586.084 470.016 588.118 466.639 589.5C463.262 590.883 459.646 591.586 455.997 591.571V591.571Z" fill="#455A64"/>
<path d="M457.413 227.419H432.704C431.898 227.434 431.103 227.608 430.364 227.93C429.625 228.252 428.956 228.717 428.397 229.298C427.837 229.879 427.398 230.564 427.103 231.315C426.809 232.065 426.665 232.867 426.68 233.673V238.153C426.696 238.958 426.552 239.759 426.257 240.509C425.962 241.259 425.523 241.943 424.963 242.523C424.403 243.103 423.735 243.566 422.996 243.887C422.257 244.208 421.462 244.38 420.656 244.394L372.489 244.177C370.859 244.133 369.314 243.445 368.191 242.263C367.069 241.081 366.462 239.501 366.503 237.872V233.392C366.544 231.765 365.939 230.187 364.819 229.006C363.7 227.824 362.157 227.134 360.53 227.087H351.838L330.205 226.985C325.06 226.954 320.112 228.964 316.445 232.574C312.778 236.183 310.69 241.099 310.64 246.244L309.363 558.196C309.352 560.749 309.843 563.279 310.809 565.642C311.775 568.004 313.197 570.154 314.993 571.967C316.79 573.78 318.926 575.222 321.28 576.21C323.634 577.197 326.159 577.712 328.712 577.723L455.933 578.31C458.487 578.322 461.019 577.831 463.383 576.864C465.748 575.898 467.898 574.475 469.713 572.677C471.527 570.879 472.97 568.741 473.958 566.386C474.947 564.03 475.461 561.503 475.473 558.949L476.749 246.997C476.78 241.837 474.76 236.877 471.134 233.205C467.509 229.534 462.573 227.453 457.413 227.419V227.419Z" fill="white"/>
<path d="M440.299 536.691L345.7 536.282C344.717 536.282 343.926 535.21 343.938 533.908L344.04 509.161C344.04 507.885 344.845 506.787 345.827 506.787L440.426 507.221C440.971 507.315 441.458 507.616 441.786 508.061C442.114 508.505 442.258 509.06 442.188 509.608L442.098 534.33C442.098 535.644 441.281 536.703 440.299 536.691Z" fill="#FD7401"/>
<path d="M376.42 518.479C376.376 518.106 376.197 517.816 375.882 517.609C375.568 517.403 375.182 517.3 374.725 517.3C374.391 517.3 374.098 517.354 373.848 517.462C373.6 517.57 373.406 517.719 373.266 517.908C373.128 518.097 373.059 518.312 373.059 518.553C373.059 518.754 373.107 518.927 373.203 519.072C373.301 519.215 373.426 519.334 373.579 519.43C373.731 519.523 373.891 519.601 374.058 519.662C374.225 519.721 374.379 519.769 374.519 519.806L375.285 520.012C375.482 520.064 375.7 520.135 375.941 520.226C376.184 520.317 376.417 520.441 376.638 520.598C376.861 520.753 377.045 520.952 377.19 521.195C377.335 521.438 377.408 521.737 377.408 522.091C377.408 522.499 377.301 522.867 377.087 523.196C376.876 523.526 376.566 523.787 376.159 523.981C375.753 524.175 375.261 524.272 374.681 524.272C374.14 524.272 373.672 524.185 373.277 524.011C372.884 523.836 372.574 523.593 372.348 523.281C372.124 522.969 371.998 522.607 371.968 522.194H372.912C372.936 522.479 373.032 522.715 373.199 522.901C373.369 523.086 373.582 523.223 373.84 523.314C374.101 523.403 374.381 523.447 374.681 523.447C375.03 523.447 375.343 523.39 375.62 523.277C375.898 523.162 376.118 523.002 376.28 522.798C376.442 522.592 376.523 522.351 376.523 522.076C376.523 521.825 376.453 521.621 376.313 521.464C376.173 521.307 375.989 521.179 375.761 521.081C375.532 520.983 375.285 520.897 375.02 520.823L374.091 520.558C373.501 520.388 373.035 520.146 372.691 519.832C372.347 519.517 372.175 519.106 372.175 518.597C372.175 518.174 372.289 517.806 372.517 517.491C372.748 517.174 373.058 516.929 373.446 516.754C373.837 516.577 374.273 516.489 374.754 516.489C375.241 516.489 375.673 516.576 376.052 516.751C376.43 516.923 376.73 517.159 376.951 517.458C377.174 517.758 377.292 518.098 377.305 518.479H376.42ZM379.825 516.592V524.14H378.911V516.592H379.825ZM387.642 516.592V524.14H386.758L382.645 518.214H382.571V524.14H381.657V516.592H382.542L386.669 522.533H386.743V516.592H387.642ZM394.63 518.951C394.549 518.703 394.442 518.48 394.31 518.284C394.18 518.085 394.024 517.915 393.842 517.775C393.662 517.635 393.458 517.528 393.23 517.455C393.001 517.381 392.751 517.344 392.478 517.344C392.031 517.344 391.624 517.459 391.258 517.69C390.892 517.921 390.601 518.262 390.385 518.711C390.169 519.161 390.061 519.712 390.061 520.366C390.061 521.02 390.17 521.571 390.389 522.021C390.607 522.47 390.903 522.811 391.277 523.042C391.65 523.272 392.07 523.388 392.537 523.388C392.97 523.388 393.35 523.296 393.68 523.112C394.011 522.925 394.269 522.662 394.453 522.323C394.64 521.981 394.734 521.58 394.734 521.118L395.014 521.177H392.743V520.366H395.618V521.177C395.618 521.798 395.485 522.339 395.22 522.798C394.957 523.258 394.594 523.614 394.129 523.867C393.667 524.118 393.137 524.243 392.537 524.243C391.869 524.243 391.282 524.086 390.776 523.771C390.272 523.457 389.879 523.01 389.596 522.43C389.316 521.85 389.176 521.162 389.176 520.366C389.176 519.769 389.256 519.232 389.416 518.755C389.578 518.276 389.806 517.869 390.101 517.532C390.396 517.195 390.745 516.937 391.148 516.758C391.551 516.579 391.994 516.489 392.478 516.489C392.876 516.489 393.247 516.549 393.591 516.67C393.938 516.788 394.246 516.956 394.516 517.174C394.789 517.391 395.016 517.65 395.198 517.952C395.38 518.252 395.505 518.585 395.574 518.951H394.63ZM405.055 516.592H405.969V521.59C405.969 522.105 405.848 522.566 405.604 522.972C405.364 523.374 405.023 523.693 404.584 523.926C404.144 524.157 403.628 524.272 403.036 524.272C402.444 524.272 401.928 524.157 401.488 523.926C401.048 523.693 400.707 523.374 400.463 522.972C400.223 522.566 400.102 522.105 400.102 521.59V516.592H401.016V521.516C401.016 521.884 401.097 522.212 401.259 522.5C401.422 522.785 401.652 523.01 401.952 523.174C402.254 523.336 402.616 523.417 403.036 523.417C403.456 523.417 403.817 523.336 404.119 523.174C404.421 523.01 404.652 522.785 404.812 522.5C404.974 522.212 405.055 521.884 405.055 521.516V516.592ZM407.794 524.14V516.592H410.345C410.937 516.592 411.421 516.699 411.797 516.913C412.175 517.124 412.455 517.41 412.637 517.772C412.819 518.133 412.91 518.536 412.91 518.98C412.91 519.425 412.819 519.829 412.637 520.193C412.458 520.556 412.18 520.846 411.804 521.063C411.428 521.276 410.947 521.383 410.359 521.383H408.531V520.572H410.33C410.735 520.572 411.061 520.502 411.307 520.362C411.552 520.222 411.73 520.033 411.841 519.795C411.954 519.554 412.01 519.282 412.01 518.98C412.01 518.678 411.954 518.408 411.841 518.17C411.73 517.931 411.551 517.744 411.303 517.609C411.055 517.472 410.725 517.403 410.315 517.403H408.708V524.14H407.794Z" fill="#E8E8E3"/>
<path d="M364.568 319.121L331.743 318.972L331.715 324.996L364.541 325.145L364.568 319.121Z" fill="#FD7401"/>
<path opacity="0.1" d="M364.568 319.121L331.743 318.972L331.715 324.996L364.541 325.145L364.568 319.121Z" fill="black"/>
<path d="M460.796 356.108C461.054 356.082 461.307 356.022 461.549 355.929C461.902 355.791 462.209 355.556 462.435 355.251C462.661 354.947 462.796 354.584 462.825 354.206C462.825 352.177 462.825 349.216 462.825 345.413C462.825 343.511 462.825 341.379 462.825 339.031C462.825 338.457 462.825 337.857 462.825 337.257C462.908 336.675 462.782 336.082 462.468 335.585C462.292 335.347 462.063 335.152 461.8 335.017C461.536 334.882 461.245 334.81 460.949 334.807H458.958H440.515L333.766 334.411C333.493 334.406 333.223 334.468 332.978 334.59C332.734 334.712 332.523 334.891 332.362 335.113C332.054 335.612 331.936 336.206 332.03 336.785C332.03 338.061 332.03 339.337 332.03 340.614C332.03 343.166 332.03 345.719 332.03 348.271C332.03 349.548 332.03 350.824 332.03 352.1C331.978 352.695 331.978 353.293 332.03 353.887C332.098 354.142 332.222 354.378 332.395 354.577C332.567 354.776 332.783 354.933 333.026 355.036C333.277 355.136 333.547 355.184 333.817 355.176H340.314L368.66 355.329L416.649 355.623L449.003 355.878L457.796 355.98H460.081C460.604 355.98 460.86 355.98 460.86 355.98H460.081H457.796H449.003H416.649L368.66 355.827L340.314 355.712H333.817C333.46 355.727 333.103 355.666 332.771 355.534C332.435 355.39 332.136 355.172 331.897 354.895C331.658 354.619 331.485 354.291 331.392 353.938C331.318 353.603 331.293 353.259 331.316 352.917V351.973C331.316 350.696 331.316 349.42 331.316 348.144C331.316 345.591 331.316 343.039 331.316 340.486C331.316 339.21 331.316 337.933 331.316 336.657C331.291 336.317 331.291 335.976 331.316 335.636C331.364 335.261 331.509 334.904 331.737 334.602C331.957 334.294 332.248 334.044 332.586 333.873C332.924 333.702 333.298 333.615 333.677 333.62L440.426 334.207L458.869 334.334H460.86C461.21 334.335 461.556 334.419 461.867 334.582C462.178 334.744 462.445 334.979 462.646 335.266C463.006 335.821 463.151 336.488 463.055 337.142C463.055 337.742 463.055 338.342 463.055 338.916C463.055 341.239 463.055 343.37 463.055 345.298C463.055 349.127 462.965 352.062 462.94 354.104C462.909 354.497 462.766 354.872 462.529 355.187C462.291 355.501 461.969 355.741 461.6 355.878C461.358 356.028 461.08 356.107 460.796 356.108V356.108Z" fill="#E0E0E0"/>
<path d="M401.639 340.818H341.603V346.446H401.639V340.818Z" fill="#FD7401"/>
<path opacity="0.2" d="M401.639 340.818H341.603V346.446H401.639V340.818Z" fill="white"/>
<path d="M364.344 374.077L331.518 373.928L331.491 379.952L364.317 380.101L364.344 374.077Z" fill="#FD7401"/>
<path opacity="0.1" d="M364.344 374.077L331.518 373.928L331.491 379.952L364.317 380.101L364.344 374.077Z" fill="black"/>
<path d="M459.966 411.065C460.224 411.033 460.48 410.986 460.732 410.925C461.088 410.811 461.416 410.623 461.694 410.372C461.971 410.121 462.192 409.813 462.34 409.47C462.541 408.954 462.62 408.4 462.57 407.849C462.57 407.236 462.57 406.573 462.57 405.832C462.57 404.352 462.57 402.667 462.57 400.727V392.623C462.631 392.036 462.501 391.445 462.2 390.938C461.885 390.418 461.39 390.032 460.808 389.853C460.173 389.74 459.525 389.705 458.881 389.751H440.515L334.136 389.355C333.564 389.357 333.012 389.566 332.582 389.944C332.153 390.322 331.875 390.843 331.801 391.41C331.801 392.623 331.801 393.963 331.801 395.239C331.801 397.792 331.801 400.344 331.801 402.897C331.801 404.173 331.801 405.449 331.801 406.726C331.753 407.322 331.779 407.922 331.877 408.512C332.037 409.03 332.365 409.479 332.809 409.789C333.28 410.088 333.834 410.231 334.392 410.197H336.166H339.854L368.098 410.338L415.921 410.631L448.16 410.886L456.928 410.988H459.213H459.979H459.213H456.928H448.16H415.921L368.073 410.937L339.829 410.835H334.277C333.586 410.876 332.901 410.693 332.324 410.312C331.743 409.91 331.319 409.319 331.124 408.64C331.01 407.992 330.976 407.331 331.022 406.675C331.022 405.398 331.022 404.122 331.022 402.846C331.022 400.293 331.022 397.741 331.022 395.188C331.022 393.912 331.022 392.635 331.022 391.359C331.115 390.629 331.471 389.958 332.023 389.472C332.575 388.986 333.286 388.717 334.021 388.717L440.401 389.304L458.766 389.445C459.45 389.403 460.137 389.45 460.808 389.585C461.472 389.802 462.031 390.256 462.378 390.861C462.708 391.423 462.851 392.076 462.787 392.725C462.787 393.325 462.787 393.912 462.787 394.499C462.787 396.809 462.787 398.928 462.787 400.88C462.787 402.833 462.787 404.479 462.787 405.985C462.787 406.713 462.787 407.389 462.787 408.015C462.833 408.585 462.741 409.159 462.519 409.687C462.353 410.039 462.113 410.351 461.816 410.602C461.519 410.853 461.171 411.037 460.796 411.142C460.517 411.165 460.236 411.139 459.966 411.065V411.065Z" fill="#E0E0E0"/>
<path d="M364.097 431.419L331.271 431.27L331.244 437.294L364.07 437.443L364.097 431.419Z" fill="#FD7401"/>
<path opacity="0.1" d="M364.097 431.419L331.271 431.27L331.244 437.294L364.07 437.443L364.097 431.419Z" fill="black"/>
<path d="M459.711 468.383C459.969 468.353 460.225 468.306 460.477 468.243C460.832 468.13 461.159 467.943 461.436 467.695C461.713 467.446 461.934 467.141 462.085 466.801C462.285 466.285 462.364 465.731 462.315 465.18C462.315 464.555 462.315 463.904 462.315 463.151C462.315 461.683 462.315 459.985 462.315 458.045V449.941C462.376 449.354 462.246 448.763 461.944 448.256C461.622 447.746 461.129 447.366 460.553 447.184C459.918 447.066 459.271 447.028 458.626 447.069H440.26L333.881 446.674C333.309 446.675 332.757 446.884 332.327 447.262C331.897 447.64 331.62 448.161 331.546 448.729C331.546 450.005 331.546 451.281 331.546 452.557C331.546 455.11 331.546 457.663 331.546 460.215C331.546 461.491 331.546 462.768 331.546 464.044C331.498 464.636 331.524 465.232 331.622 465.818C331.775 466.339 332.104 466.79 332.554 467.094C333.022 467.4 333.578 467.544 334.136 467.503H339.688L367.933 467.656L415.755 467.949L447.995 468.205L456.763 468.307H459.047C459.558 468.307 459.813 468.307 459.813 468.307C459.813 468.307 459.558 468.307 459.047 468.307H456.763H447.995H415.755L367.933 468.166L339.688 468.052H334.136C333.445 468.098 332.759 467.914 332.184 467.528C331.603 467.126 331.179 466.535 330.984 465.856C330.87 465.208 330.835 464.548 330.882 463.891C330.882 462.615 330.882 461.338 330.882 460.062C330.882 457.509 330.882 454.957 330.882 452.404C330.882 451.128 330.882 449.852 330.882 448.512C330.972 447.783 331.325 447.112 331.875 446.626C332.425 446.139 333.134 445.87 333.868 445.87L440.247 446.457L458.613 446.597C459.297 446.555 459.984 446.602 460.655 446.737C461.319 446.954 461.878 447.409 462.225 448.014C462.555 448.576 462.698 449.228 462.634 449.877C462.634 450.477 462.634 451.077 462.634 451.651C462.634 453.961 462.634 456.08 462.634 458.033C462.634 459.985 462.634 461.632 462.634 463.138C462.634 463.865 462.634 464.542 462.634 465.167C462.683 465.738 462.591 466.312 462.366 466.839C462.2 467.191 461.96 467.504 461.663 467.755C461.366 468.006 461.018 468.19 460.643 468.294C460.343 468.397 460.024 468.427 459.711 468.383V468.383Z" fill="#E0E0E0"/>
<path d="M400.358 397.366L340.322 397.094L340.296 402.722L400.333 402.995L400.358 397.366Z" fill="#FD7401"/>
<path opacity="0.2" d="M400.358 397.366L340.322 397.094L340.296 402.722L400.333 402.995L400.358 397.366Z" fill="white"/>
<path d="M345.75 457.969C345.713 458.482 345.525 458.973 345.211 459.381C344.897 459.789 344.47 460.095 343.983 460.263C343.496 460.43 342.971 460.451 342.473 460.322C341.974 460.194 341.524 459.922 341.179 459.541C340.833 459.159 340.608 458.684 340.53 458.175C340.451 457.667 340.524 457.146 340.739 456.678C340.954 456.211 341.302 455.816 341.739 455.544C342.176 455.272 342.683 455.135 343.198 455.148C343.909 455.188 344.576 455.506 345.054 456.034C345.531 456.562 345.782 457.257 345.75 457.969V457.969Z" fill="#FD7401"/>
<path d="M353.881 458.007C353.906 458.367 353.857 458.728 353.736 459.068C353.616 459.408 353.427 459.72 353.181 459.983C352.935 460.247 352.637 460.458 352.306 460.601C351.975 460.745 351.619 460.819 351.258 460.819C350.897 460.819 350.54 460.745 350.21 460.601C349.879 460.458 349.581 460.247 349.335 459.983C349.089 459.72 348.9 459.408 348.78 459.068C348.659 458.728 348.61 458.367 348.635 458.007C348.61 457.647 348.659 457.286 348.78 456.946C348.9 456.606 349.089 456.295 349.335 456.031C349.581 455.767 349.879 455.557 350.21 455.413C350.54 455.269 350.897 455.195 351.258 455.195C351.619 455.195 351.975 455.269 352.306 455.413C352.637 455.557 352.935 455.767 353.181 456.031C353.427 456.295 353.616 456.606 353.736 456.946C353.857 457.286 353.906 457.647 353.881 458.007V458.007Z" fill="#FD7401"/>
<path d="M362.024 458.045C361.986 458.559 361.798 459.05 361.484 459.458C361.17 459.865 360.743 460.172 360.256 460.339C359.77 460.507 359.244 460.528 358.746 460.399C358.247 460.271 357.797 459.999 357.452 459.617C357.107 459.236 356.881 458.761 356.803 458.252C356.725 457.743 356.798 457.223 357.013 456.755C357.228 456.287 357.575 455.893 358.012 455.621C358.449 455.349 358.956 455.211 359.471 455.225C360.181 455.268 360.846 455.587 361.323 456.114C361.8 456.642 362.052 457.335 362.024 458.045Z" fill="#FD7401"/>
<path d="M370.154 458.084C370.116 458.597 369.928 459.088 369.614 459.496C369.3 459.904 368.873 460.21 368.386 460.378C367.899 460.545 367.374 460.566 366.876 460.437C366.377 460.309 365.927 460.037 365.582 459.656C365.237 459.274 365.011 458.799 364.933 458.29C364.855 457.782 364.928 457.261 365.142 456.793C365.357 456.326 365.705 455.931 366.142 455.659C366.579 455.387 367.086 455.25 367.601 455.263C368.311 455.306 368.976 455.625 369.453 456.153C369.93 456.68 370.182 457.373 370.154 458.084Z" fill="#FD7401"/>
<path d="M378.284 458.109C378.248 458.623 378.063 459.116 377.75 459.525C377.437 459.935 377.011 460.244 376.524 460.413C376.037 460.582 375.512 460.605 375.012 460.478C374.513 460.351 374.062 460.079 373.715 459.698C373.368 459.317 373.142 458.842 373.062 458.333C372.983 457.824 373.056 457.302 373.271 456.834C373.485 456.365 373.833 455.97 374.271 455.698C374.708 455.425 375.216 455.288 375.731 455.301C376.439 455.344 377.101 455.662 377.578 456.186C378.055 456.711 378.308 457.401 378.284 458.109Z" fill="#FD7401"/>
<path d="M386.426 458.147C386.391 458.659 386.208 459.149 385.898 459.558C385.588 459.966 385.166 460.275 384.682 460.447C384.199 460.618 383.677 460.644 383.179 460.523C382.681 460.401 382.229 460.136 381.879 459.761C381.53 459.386 381.298 458.917 381.211 458.412C381.125 457.906 381.188 457.387 381.393 456.917C381.599 456.447 381.937 456.047 382.366 455.767C382.795 455.487 383.297 455.338 383.81 455.34C384.529 455.366 385.208 455.677 385.698 456.203C386.188 456.729 386.45 457.429 386.426 458.147V458.147Z" fill="#FD7401"/>
<path d="M394.556 458.186C394.581 458.546 394.532 458.907 394.412 459.247C394.291 459.587 394.102 459.898 393.856 460.162C393.61 460.426 393.312 460.636 392.982 460.78C392.651 460.924 392.294 460.998 391.933 460.998C391.573 460.998 391.216 460.924 390.885 460.78C390.554 460.636 390.257 460.426 390.011 460.162C389.765 459.898 389.576 459.587 389.455 459.247C389.335 458.907 389.285 458.546 389.311 458.186C389.285 457.826 389.335 457.465 389.455 457.125C389.576 456.785 389.765 456.473 390.011 456.209C390.257 455.946 390.554 455.735 390.885 455.592C391.216 455.448 391.573 455.374 391.933 455.374C392.294 455.374 392.651 455.448 392.982 455.592C393.312 455.735 393.61 455.946 393.856 456.209C394.102 456.473 394.291 456.785 394.412 457.125C394.532 457.465 394.581 457.826 394.556 458.186Z" fill="#FD7401"/>
<path d="M402.686 458.224C402.651 458.736 402.468 459.226 402.158 459.634C401.848 460.043 401.426 460.352 400.943 460.523C400.459 460.695 399.937 460.721 399.439 460.599C398.941 460.478 398.489 460.213 398.14 459.838C397.79 459.463 397.558 458.994 397.472 458.488C397.385 457.983 397.449 457.463 397.654 456.994C397.859 456.524 398.197 456.124 398.626 455.844C399.055 455.564 399.557 455.415 400.07 455.416C400.789 455.443 401.468 455.753 401.958 456.28C402.449 456.806 402.71 457.505 402.686 458.224V458.224Z" fill="#FD7401"/>
<path d="M410.816 458.262C410.781 458.777 410.595 459.269 410.283 459.679C409.97 460.088 409.544 460.397 409.057 460.566C408.57 460.735 408.044 460.758 407.545 460.631C407.045 460.504 406.594 460.233 406.248 459.851C405.901 459.47 405.674 458.995 405.595 458.486C405.516 457.977 405.588 457.455 405.803 456.987C406.018 456.519 406.366 456.124 406.803 455.851C407.241 455.579 407.748 455.441 408.264 455.455C408.971 455.497 409.634 455.815 410.111 456.339C410.588 456.864 410.841 457.554 410.816 458.262V458.262Z" fill="#FD7401"/>
<g opacity="0.2">
<path d="M345.75 457.969C345.713 458.482 345.525 458.973 345.211 459.381C344.897 459.789 344.47 460.095 343.983 460.263C343.496 460.43 342.971 460.451 342.473 460.322C341.974 460.194 341.524 459.922 341.179 459.541C340.833 459.159 340.608 458.684 340.53 458.175C340.451 457.667 340.524 457.146 340.739 456.678C340.954 456.211 341.302 455.816 341.739 455.544C342.176 455.272 342.683 455.135 343.198 455.148C343.909 455.188 344.576 455.506 345.054 456.034C345.531 456.562 345.782 457.257 345.75 457.969V457.969Z" fill="white"/>
<path d="M353.88 458.007C353.906 458.367 353.856 458.728 353.736 459.068C353.616 459.408 353.426 459.72 353.18 459.983C352.934 460.247 352.637 460.457 352.306 460.601C351.975 460.745 351.618 460.819 351.258 460.819C350.897 460.819 350.54 460.745 350.209 460.601C349.879 460.457 349.581 460.247 349.335 459.983C349.089 459.72 348.9 459.408 348.779 459.068C348.659 458.728 348.61 458.367 348.635 458.007C348.61 457.647 348.659 457.286 348.779 456.946C348.9 456.606 349.089 456.295 349.335 456.031C349.581 455.767 349.879 455.557 350.209 455.413C350.54 455.269 350.897 455.195 351.258 455.195C351.618 455.195 351.975 455.269 352.306 455.413C352.637 455.557 352.934 455.767 353.18 456.031C353.426 456.295 353.616 456.606 353.736 456.946C353.856 457.286 353.906 457.647 353.88 458.007V458.007Z" fill="white"/>
<path d="M362.023 458.045C361.986 458.559 361.798 459.05 361.484 459.458C361.17 459.865 360.743 460.172 360.256 460.339C359.769 460.507 359.244 460.527 358.746 460.399C358.247 460.271 357.797 459.999 357.452 459.617C357.107 459.235 356.881 458.761 356.803 458.252C356.725 457.743 356.797 457.223 357.012 456.755C357.227 456.287 357.575 455.893 358.012 455.621C358.449 455.349 358.956 455.211 359.471 455.225C360.181 455.268 360.846 455.587 361.323 456.114C361.8 456.641 362.051 457.335 362.023 458.045Z" fill="white"/>
<path d="M370.153 458.084C370.116 458.597 369.928 459.088 369.614 459.496C369.3 459.904 368.873 460.21 368.386 460.378C367.899 460.545 367.374 460.566 366.876 460.437C366.377 460.309 365.927 460.037 365.582 459.655C365.236 459.274 365.011 458.799 364.933 458.29C364.854 457.782 364.927 457.261 365.142 456.793C365.357 456.325 365.705 455.931 366.142 455.659C366.579 455.387 367.086 455.249 367.601 455.263C368.311 455.306 368.975 455.625 369.453 456.152C369.93 456.68 370.181 457.373 370.153 458.084Z" fill="white"/>
<path d="M378.283 458.109C378.248 458.623 378.063 459.116 377.75 459.525C377.437 459.935 377.011 460.244 376.524 460.413C376.037 460.582 375.512 460.605 375.012 460.478C374.513 460.351 374.062 460.079 373.715 459.698C373.368 459.317 373.141 458.842 373.062 458.333C372.983 457.824 373.056 457.302 373.27 456.834C373.485 456.365 373.833 455.97 374.27 455.698C374.708 455.425 375.216 455.288 375.731 455.301C376.438 455.344 377.101 455.662 377.578 456.186C378.055 456.711 378.308 457.401 378.283 458.109Z" fill="white"/>
<path d="M386.426 458.147C386.391 458.659 386.208 459.149 385.898 459.558C385.588 459.966 385.165 460.275 384.682 460.447C384.199 460.618 383.676 460.644 383.178 460.523C382.68 460.401 382.229 460.136 381.879 459.761C381.53 459.386 381.298 458.917 381.211 458.412C381.125 457.906 381.188 457.387 381.393 456.917C381.598 456.447 381.936 456.047 382.366 455.767C382.795 455.487 383.297 455.338 383.81 455.34C384.528 455.366 385.207 455.677 385.698 456.203C386.188 456.729 386.45 457.429 386.426 458.147V458.147Z" fill="white"/>
<path d="M394.556 458.186C394.581 458.546 394.532 458.907 394.412 459.247C394.291 459.587 394.102 459.898 393.856 460.162C393.61 460.426 393.312 460.636 392.982 460.78C392.651 460.924 392.294 460.998 391.933 460.998C391.573 460.998 391.216 460.924 390.885 460.78C390.554 460.636 390.257 460.426 390.01 460.162C389.764 459.898 389.575 459.587 389.455 459.247C389.335 458.907 389.285 458.546 389.31 458.186C389.285 457.826 389.335 457.465 389.455 457.125C389.575 456.785 389.764 456.473 390.01 456.209C390.257 455.946 390.554 455.735 390.885 455.592C391.216 455.448 391.573 455.374 391.933 455.374C392.294 455.374 392.651 455.448 392.982 455.592C393.312 455.735 393.61 455.946 393.856 456.209C394.102 456.473 394.291 456.785 394.412 457.125C394.532 457.465 394.581 457.826 394.556 458.186Z" fill="white"/>
<path d="M402.686 458.224C402.651 458.736 402.468 459.226 402.158 459.634C401.848 460.043 401.426 460.352 400.943 460.523C400.459 460.695 399.937 460.721 399.439 460.599C398.941 460.478 398.489 460.213 398.14 459.838C397.79 459.463 397.558 458.994 397.472 458.488C397.385 457.983 397.448 457.463 397.654 456.994C397.859 456.524 398.197 456.124 398.626 455.844C399.055 455.564 399.557 455.415 400.07 455.416C400.789 455.443 401.468 455.753 401.958 456.28C402.449 456.806 402.71 457.505 402.686 458.224V458.224Z" fill="white"/>
<path d="M410.816 458.262C410.781 458.777 410.595 459.269 410.283 459.679C409.97 460.088 409.543 460.397 409.057 460.566C408.57 460.735 408.044 460.758 407.545 460.631C407.045 460.504 406.594 460.233 406.248 459.851C405.901 459.47 405.674 458.995 405.595 458.486C405.516 457.977 405.588 457.455 405.803 456.987C406.018 456.519 406.366 456.124 406.803 455.851C407.24 455.579 407.748 455.441 408.263 455.455C408.971 455.497 409.634 455.815 410.111 456.339C410.588 456.864 410.841 457.554 410.816 458.262V458.262Z" fill="white"/>
</g>
<path d="M399.266 274.017C400.152 273.626 400.904 272.984 401.429 272.169C401.953 271.354 402.226 270.403 402.214 269.435C402.247 268.805 402.151 268.175 401.933 267.584C401.715 266.992 401.379 266.451 400.945 265.994C400.51 265.536 399.988 265.172 399.408 264.923C398.829 264.674 398.205 264.546 397.575 264.546C396.944 264.546 396.32 264.674 395.741 264.923C395.161 265.172 394.639 265.536 394.205 265.994C393.771 266.451 393.434 266.992 393.216 267.584C392.998 268.175 392.902 268.805 392.935 269.435C392.916 270.413 393.187 271.375 393.714 272.2C394.241 273.025 395 273.674 395.896 274.068C388.749 275.14 389.068 282.9 389.068 282.9L405.966 282.976C405.966 282.976 406.362 275.076 399.266 274.017Z" fill="#FD7401"/>
<path opacity="0.1" d="M399.266 274.017C400.152 273.626 400.904 272.984 401.429 272.169C401.953 271.354 402.226 270.403 402.214 269.435C402.247 268.805 402.151 268.175 401.933 267.584C401.715 266.992 401.379 266.451 400.945 265.994C400.51 265.536 399.988 265.172 399.408 264.923C398.829 264.674 398.205 264.546 397.575 264.546C396.944 264.546 396.32 264.674 395.741 264.923C395.161 265.172 394.639 265.536 394.205 265.994C393.771 266.451 393.434 266.992 393.216 267.584C392.998 268.175 392.902 268.805 392.935 269.435C392.916 270.413 393.187 271.375 393.714 272.2C394.241 273.025 395 273.674 395.896 274.068C388.749 275.14 389.068 282.9 389.068 282.9L405.966 282.976C405.966 282.976 406.362 275.076 399.266 274.017Z" fill="black"/>
<path d="M426.725 287.981L366.497 287.708L366.465 294.906L426.692 295.179L426.725 287.981Z" fill="#FD7401"/>
<path opacity="0.2" d="M426.725 287.981L366.497 287.708L366.465 294.906L426.692 295.179L426.725 287.981Z" fill="white"/>
<path d="M205.308 325.285H204.708L202.973 325.413C202.033 325.469 201.099 325.593 200.178 325.783C199.581 325.867 198.988 325.982 198.404 326.128L196.425 326.676C193.058 327.709 189.881 329.283 187.019 331.335C183.237 334.08 180.079 337.594 177.753 341.647C176.386 343.984 175.298 346.472 174.511 349.063C173.685 351.878 173.209 354.784 173.095 357.716C173.019 359.256 173.044 360.799 173.171 362.336C173.171 363.115 173.388 363.893 173.49 364.684C173.576 365.482 173.726 366.272 173.937 367.046C175.085 372.167 177.413 376.949 180.737 381.011C184.061 385.073 188.288 388.302 193.081 390.44C196.55 391.937 200.269 392.772 204.045 392.903C207.945 393.118 211.849 392.558 215.531 391.257L216.655 390.836H216.808L216.935 390.912L233.029 399.081L232.557 399.489C230.834 394.154 229.175 388.985 227.567 384.02V383.829L227.707 383.688C231.611 379.756 234.51 374.94 236.156 369.649C237.648 364.812 238.083 359.711 237.433 354.691C236.854 350.23 235.42 345.922 233.208 342.005C231.302 338.64 228.842 335.619 225.933 333.071C223.533 331.053 220.877 329.362 218.033 328.042C215.881 327.114 213.64 326.408 211.345 325.936L208.793 325.515L206.942 325.375L205.819 325.298H205.436C205.563 325.284 205.692 325.284 205.819 325.298H206.955L208.805 325.375L211.358 325.745C213.682 326.182 215.953 326.863 218.135 327.774C221.028 329.079 223.732 330.766 226.176 332.79C229.138 335.327 231.65 338.348 233.604 341.724C235.878 345.683 237.357 350.049 237.956 354.576C238.66 359.674 238.255 364.863 236.769 369.79C235.112 375.191 232.168 380.109 228.192 384.122L228.269 383.791C229.877 388.755 231.549 393.924 233.285 399.246L233.527 400.025L232.8 399.655L216.706 391.499H216.986L215.838 391.921C212.084 393.241 208.108 393.814 204.134 393.605C200.277 393.458 196.481 392.593 192.941 391.053C186.189 388.161 180.571 383.135 176.949 376.745C175.282 373.794 174.065 370.611 173.337 367.301C173.138 366.507 172.989 365.701 172.89 364.889C172.788 364.085 172.622 363.293 172.584 362.502C172.239 357.961 172.719 353.394 174.001 349.024C174.807 346.398 175.925 343.879 177.332 341.52C179.714 337.43 182.937 333.893 186.789 331.143C189.699 329.086 192.929 327.525 196.349 326.523L198.352 326.013C198.942 325.876 199.539 325.769 200.139 325.694C201.071 325.521 202.013 325.419 202.96 325.387L204.708 325.324C204.907 325.297 205.108 325.284 205.308 325.285Z" fill="#FD7401"/>
<path d="M212.583 355.048H210.222L205.117 347.876V343.166C205.117 343.166 201.466 342.936 201.9 349.101C202.334 355.265 201.9 353.696 201.9 353.696C201.9 353.696 194.153 353.696 193.515 354.398C192.877 355.099 192.839 362.579 192.749 366.752C192.7 367.758 192.989 368.752 193.57 369.575C194.15 370.398 194.989 371.004 195.953 371.296C196.223 371.371 196.502 371.409 196.782 371.411C198.722 371.411 208.588 369.841 208.588 369.841H212.66L212.583 355.048Z" fill="#FD7401"/>
<path d="M219.335 353.785L217.88 369.917H213.847V354.117L219.335 353.785Z" fill="#FD7401"/>
<path d="M267.438 682.214V671.301L247.872 671.161L247.706 687.663L248.919 687.753C254.317 688.097 276.384 688.608 280.009 687.485C284.042 686.234 267.438 682.214 267.438 682.214Z" fill="#FD7401"/>
<path d="M280.468 686.464C280.468 686.642 273.142 686.795 264.119 686.795C255.096 686.795 247.77 686.642 247.77 686.464C247.77 686.285 255.096 686.132 264.119 686.132C273.142 686.132 280.468 686.285 280.468 686.464Z" fill="#263238"/>
<path d="M267.782 684.447C267.616 684.358 267.782 683.783 268.178 683.171C268.573 682.558 269.11 682.303 269.237 682.431C269.365 682.558 269.097 683.043 268.714 683.566C268.331 684.09 267.948 684.536 267.782 684.447Z" fill="#263238"/>
<path d="M269.033 685.162C268.854 685.162 268.943 684.447 269.326 683.771C269.709 683.094 270.22 682.686 270.36 682.788C270.5 682.89 270.271 683.464 269.913 684.064C269.556 684.664 269.199 685.226 269.033 685.162Z" fill="#263238"/>
<path d="M253.667 686.413C253.59 686.413 253.297 686.183 252.875 685.698C252.361 685.074 251.789 684.502 251.165 683.988C250.552 683.498 249.822 683.177 249.047 683.056C248.447 682.979 248.064 683.056 248.026 682.979C247.987 682.903 248.357 682.635 249.059 682.584C249.986 682.564 250.889 682.871 251.612 683.452C252.289 684.003 252.86 684.674 253.297 685.43C253.59 685.991 253.743 686.362 253.667 686.413Z" fill="#263238"/>
<path d="M267.846 682.392C267.935 682.545 267.603 682.928 267.042 683.132C266.48 683.337 265.983 683.26 265.957 683.132C265.931 683.005 266.327 682.737 266.812 682.558C267.297 682.379 267.744 682.239 267.846 682.392Z" fill="#263238"/>
<path d="M267.54 681.333C267.54 681.524 267.029 681.678 266.366 681.69C265.702 681.703 265.179 681.55 265.192 681.371C265.204 681.193 265.728 681.027 266.366 681.014C267.004 681.001 267.514 681.154 267.54 681.333Z" fill="#263238"/>
<path d="M315.618 682.214V671.301L296.052 671.161L295.886 687.497L297.099 687.587C302.498 687.931 324.578 688.608 328.189 687.485C332.223 686.234 315.618 682.214 315.618 682.214Z" fill="#FD7401"/>
<path d="M328.648 686.489C328.648 686.668 321.335 686.821 312.299 686.821C303.263 686.821 295.963 686.668 295.963 686.489C295.963 686.311 303.276 686.157 312.299 686.157C321.322 686.157 328.648 686.311 328.648 686.489Z" fill="#263238"/>
<path d="M315.962 684.447C315.809 684.358 315.962 683.783 316.358 683.171C316.754 682.558 317.29 682.303 317.417 682.431C317.545 682.558 317.277 683.043 316.894 683.566C316.511 684.09 316.128 684.536 315.962 684.447Z" fill="#263238"/>
<path d="M317.213 685.162C317.047 685.162 317.124 684.447 317.52 683.771C317.915 683.094 318.413 682.686 318.554 682.788C318.694 682.89 318.451 683.464 318.094 684.064C317.737 684.664 317.392 685.226 317.213 685.162Z" fill="#263238"/>
<path d="M301.847 686.413C301.77 686.413 301.489 686.183 301.055 685.698C300.541 685.074 299.968 684.502 299.345 683.988C298.732 683.498 298.002 683.177 297.226 683.056C296.639 682.979 296.244 683.056 296.205 682.979C296.167 682.903 296.537 682.635 297.239 682.584C298.166 682.564 299.069 682.871 299.792 683.452C300.472 684 301.044 684.671 301.476 685.43C301.77 685.991 301.923 686.362 301.847 686.413Z" fill="#263238"/>
<path d="M316.026 682.392C316.115 682.545 315.784 682.928 315.222 683.132C314.66 683.337 314.163 683.26 314.137 683.132C314.112 683.005 314.507 682.737 314.992 682.558C315.477 682.379 315.924 682.239 316.026 682.392Z" fill="#263238"/>
<path d="M315.745 681.333C315.745 681.524 315.235 681.678 314.571 681.69C313.907 681.703 313.397 681.55 313.41 681.371C313.422 681.193 313.933 681.027 314.571 681.014C315.209 681.001 315.745 681.154 315.745 681.333Z" fill="#263238"/>
<path d="M387.703 358.163C387.193 357.639 385.929 357.895 385.929 357.895C386.056 357.16 386.056 356.409 385.929 355.674C385.699 354.959 384.091 355.099 384.091 355.099C384.017 354.498 384.017 353.889 384.091 353.287C384.104 353.154 384.075 353.02 384.009 352.903C383.943 352.787 383.842 352.693 383.721 352.636C382.96 352.326 382.143 352.178 381.322 352.202C380.339 351.5 384.321 345.923 385.801 344.136C387.282 342.349 387.014 340.958 385.699 340.958C384.793 340.958 380.147 346.319 378.718 348.118C377.289 349.918 373.498 354.921 373.37 350.926C373.243 346.931 371.635 343.919 370.626 343.409C369.618 342.898 368.546 344.098 369.095 345.208C369.577 346.47 369.878 347.793 369.988 349.139C370.127 350.211 370.079 351.299 369.848 352.355C369.425 354.32 368.849 356.249 368.125 358.124H368.023C368.023 358.124 340.174 384.837 338.157 386.739C336.358 388.449 300.162 384.709 292.9 383.944C290.432 383.583 287.94 383.412 285.446 383.433C282.294 383.574 281.732 384.02 278.593 384.059C270.664 384.147 262.753 384.842 254.93 386.139C251.388 386.741 248.079 388.305 245.365 390.659C242.651 393.013 240.635 396.068 239.538 399.489C232.225 422.335 215.659 476.411 212.736 506.787C210.527 510.792 208.534 514.912 206.763 519.129C204.708 524.719 205.206 524.91 205.895 525.038C207.758 525.383 209.877 515.351 210.668 517.776C211.46 520.201 206.648 529.735 208.601 530.016C211.153 530.373 213.183 519.805 213.425 518.963C213.668 518.12 214.931 518.389 214.701 519.18C214.331 520.303 210.745 532.211 213.246 532.594C214.625 532.798 214.778 530.284 214.778 530.284C214.778 530.284 217.331 518.886 218.492 519.116C219.653 519.346 218.415 526.072 217.828 528.318C217.241 530.564 218.058 531.7 219.258 531.151C220.075 530.769 222.027 523.94 222.563 521.72C223.099 519.499 224.44 513.347 226.239 516.908C228.039 520.469 230.77 522.536 231.893 522.587C232.146 522.558 232.385 522.454 232.578 522.288C232.771 522.122 232.911 521.902 232.978 521.657C233.045 521.411 233.037 521.151 232.956 520.909C232.874 520.668 232.721 520.457 232.518 520.303C231.552 519.36 230.723 518.286 230.055 517.112C229.46 516.198 229.028 515.188 228.779 514.126C228.265 512.009 227.965 509.845 227.886 507.668L227.681 506.391C230.54 492.237 238.772 450.694 250.655 424.16L255.53 434.191L257.649 441.619L244.656 473.693L300.073 472.965L291.802 441.134L301.847 407.951C312.708 408.193 340.595 408.602 345.241 406.496C351.086 403.943 381.322 365.757 381.322 365.757C383.293 364.225 385.18 362.589 386.976 360.856C386.976 360.856 388.813 359.311 387.703 358.163Z" fill="#FFBE9D"/>
<path d="M242.218 449.992C243.826 444.504 252.084 417.37 252.084 417.37C252.084 417.37 256.142 439.488 255.07 442.156C254.084 444.439 252.919 446.641 251.586 448.741C242.218 462.997 243.443 470.132 243.443 470.132L300.047 468.409C300.175 460.496 295.491 442.092 294.521 439.156C293.551 436.221 296.78 426.61 296.78 426.61C296.78 426.61 303.161 420.114 302.931 416.77C302.81 413.766 302.439 410.778 301.821 407.836L336.281 409.112L335.196 385.756L285.701 380.804C283.978 385.667 268.395 383.28 268.395 383.28C251.573 383.842 250.527 386.93 243.533 392.367C236.539 397.804 224.963 444.466 224.963 444.466L242.218 449.992Z" fill="#FD7401"/>
<path d="M275.682 444.466C274.702 444.641 273.702 444.692 272.709 444.619C270.858 444.619 268.318 444.491 265.523 444.21C262.728 443.93 260.201 443.534 258.401 443.177C257.409 443.049 256.436 442.8 255.504 442.436C256.502 442.437 257.498 442.531 258.478 442.717C260.29 442.947 262.805 443.266 265.587 443.547C268.369 443.827 270.896 444.019 272.721 444.147C273.716 444.159 274.708 444.266 275.682 444.466V444.466Z" fill="#263238"/>
<path d="M279.562 439.654C278.581 440.135 277.543 440.491 276.474 440.713C271.382 442.051 266.128 442.674 260.865 442.564C259.775 442.599 258.686 442.496 257.623 442.258C258.698 442.122 259.781 442.066 260.865 442.092C262.868 442.028 265.625 441.887 268.663 441.53C271.7 441.173 274.406 440.662 276.321 440.254C277.384 439.97 278.468 439.769 279.562 439.654V439.654Z" fill="#263238"/>
<path d="M298.605 418.187C298.579 419.16 298.446 420.127 298.209 421.071C297.877 422.845 297.367 425.27 296.716 427.925C296.065 430.579 295.44 433.03 294.878 434.689C294.652 435.639 294.318 436.56 293.883 437.433C293.954 436.463 294.134 435.504 294.419 434.574C294.904 432.583 295.453 430.286 296.065 427.772C296.678 425.257 297.265 422.96 297.75 420.969C297.923 420.011 298.21 419.077 298.605 418.187V418.187Z" fill="#263238"/>
<path d="M242.818 446.737C239.865 446.281 236.951 445.603 234.101 444.708C231.188 444.027 228.33 443.131 225.55 442.028C228.501 442.491 231.414 443.169 234.267 444.057C237.18 444.736 240.039 445.632 242.818 446.737V446.737Z" fill="#263238"/>
<path d="M302.433 407.555C301.952 407.638 301.46 407.638 300.978 407.555C299.645 407.418 298.336 407.105 297.086 406.623C294.998 405.839 293.097 404.626 291.506 403.063C289.914 401.501 288.667 399.622 287.845 397.549C286.936 395.268 286.548 392.813 286.709 390.363C286.766 388.343 287.371 386.375 288.458 384.671C289.223 383.523 290.365 382.679 291.687 382.284C292.04 382.187 292.405 382.14 292.772 382.144C293.027 382.144 293.155 382.144 293.155 382.144C293.155 382.144 292.619 382.144 291.763 382.489C290.551 382.937 289.522 383.777 288.841 384.875C287.105 387.607 286.62 392.597 288.471 397.255C289.332 399.452 290.68 401.424 292.414 403.024C293.835 404.333 295.472 405.387 297.252 406.138C298.922 406.799 300.659 407.274 302.433 407.555V407.555Z" fill="#263238"/>
<path d="M332.184 408.653C331.865 404.739 331.762 400.81 331.878 396.885C331.778 392.963 331.897 389.039 332.235 385.131C332.555 389.04 332.657 392.964 332.541 396.885C332.649 400.811 332.529 404.74 332.184 408.653V408.653Z" fill="#263238"/>
<path d="M285.37 382.233C285.51 379.387 285.803 376.171 285.803 376.171C285.803 376.171 292.849 375.393 293.27 368.118C293.691 360.843 293.27 344.06 293.27 344.06L280.507 337.525L266.34 348.667L268.522 385.041L281.515 385.871C282.508 385.898 283.472 385.531 284.194 384.849C284.917 384.167 285.339 383.227 285.37 382.233V382.233Z" fill="#FFBE9D"/>
<path d="M286.633 362.362C286.633 362.362 286.633 362.502 286.519 362.668C286.424 362.788 286.301 362.884 286.161 362.946C286.021 363.008 285.867 363.035 285.714 363.025C284.898 363.025 284.106 362.081 283.826 360.983C283.692 360.451 283.692 359.894 283.826 359.362C283.852 359.13 283.936 358.908 284.069 358.716C284.203 358.525 284.382 358.369 284.591 358.265C284.763 358.194 284.956 358.194 285.127 358.265C285.255 358.328 285.358 358.431 285.421 358.558C285.51 358.775 285.421 358.916 285.421 358.903C285.421 358.89 285.421 358.775 285.293 358.648C285.227 358.556 285.128 358.493 285.018 358.469C284.907 358.446 284.792 358.464 284.693 358.52C284.537 358.615 284.407 358.747 284.315 358.906C284.224 359.064 284.174 359.243 284.17 359.426C284.063 359.901 284.063 360.394 284.17 360.868C284.425 361.864 285.115 362.668 285.727 362.745C285.847 362.761 285.969 362.752 286.085 362.719C286.202 362.686 286.31 362.63 286.404 362.553C286.557 362.451 286.608 362.349 286.633 362.362Z" fill="#EB996E"/>
<path d="M297.648 340.129C296.665 336.785 293.104 335.125 289.862 334.207C284.923 332.803 279.588 332.19 274.764 333.964C269.939 335.738 264.145 338.852 264.145 344.174C261.299 343.945 259.665 346.433 258.542 349.522C257.824 351.404 257.394 353.383 257.266 355.393V355.393C256.908 362.362 254.955 371.985 250.437 377.09C247.885 379.936 244.349 381.902 242.895 385.45C241.618 388.526 242.282 392.176 241.095 395.29C240.036 398.034 237.7 399.987 235.99 402.373C234.247 405.081 233.222 408.187 233.01 411.4C232.798 414.612 233.406 417.826 234.777 420.739C236.158 423.578 238.103 426.105 240.493 428.168C242.882 430.23 245.666 431.785 248.676 432.736C254.638 434.55 260.995 434.612 266.991 432.915C271.491 431.839 275.689 429.758 279.269 426.827C282.932 423.836 285.448 419.669 286.391 415.034C287.297 409.827 285.842 404.53 284.757 399.349C281.362 382.974 282.332 382.119 286.62 366.918C286.722 366.65 286.773 366.369 286.85 366.101C286.927 365.833 286.965 365.705 287.016 365.501C287.138 364.9 287.202 364.289 287.207 363.676C286.581 363.909 285.901 363.958 285.248 363.818C284.594 363.678 283.995 363.354 283.519 362.885C283.042 362.384 282.71 361.764 282.557 361.09C282.404 360.416 282.437 359.713 282.651 359.056C282.952 358.337 283.401 357.69 283.968 357.156C284.535 356.621 285.208 356.212 285.944 355.955C287.361 355.367 288.879 355.061 290.271 354.41C293.219 353.006 295.261 350.096 296.652 347.046C297.796 344.932 298.149 342.479 297.648 340.129V340.129Z" fill="#263238"/>
<path d="M287.144 362.706C287.413 363.105 287.636 363.533 287.807 363.982C288.19 364.787 288.701 365.922 289.262 367.237L289.364 367.48H289.096L287.82 367.594C286.94 367.594 286.199 367.76 285.331 367.748C285.256 367.731 285.186 367.695 285.128 367.643C285.07 367.592 285.026 367.527 285 367.454C284.962 367.338 284.962 367.213 285 367.097C285.029 366.925 285.067 366.754 285.114 366.586L285.344 365.68C285.46 365.075 285.639 364.485 285.88 363.919C285.856 364.535 285.767 365.147 285.612 365.744L285.434 366.65C285.37 366.956 285.255 367.428 285.434 367.39C286.072 367.39 286.978 367.25 287.82 367.199L289.096 367.084L288.931 367.365C288.382 366.088 287.922 364.889 287.654 364.059C287.419 363.635 287.247 363.18 287.144 362.706V362.706Z" fill="#FD7401"/>
<path d="M243.443 470.132L300.047 468.409L324.679 564.565L320.149 674.862H290.219L293.882 566.913L271.994 499.972L275.363 679.138L245.115 679.584L241.937 511.177C241.797 506.493 240.265 495.938 240.84 491.293L243.443 470.132Z" fill="#263238"/>
<path d="M279.525 501.337C278.598 501.395 277.668 501.34 276.755 501.171C275.045 500.967 272.709 500.61 270.144 500.099C267.578 499.589 265.281 499.002 263.622 498.529C262.735 498.334 261.877 498.025 261.069 497.61C261.069 497.419 265.23 498.414 270.335 499.448C275.44 500.482 279.55 501.146 279.525 501.337Z" fill="#455A64"/>
<path d="M319.843 668.813C319.843 668.991 313.065 669.144 304.706 669.144C296.346 669.144 289.556 668.991 289.556 668.813C289.556 668.634 296.333 668.481 304.706 668.481C313.078 668.481 319.843 668.621 319.843 668.813Z" fill="#455A64"/>
<path d="M275.095 674.479C275.095 674.671 268.51 674.811 260.393 674.811C252.275 674.811 245.702 674.671 245.702 674.479C245.702 674.288 252.288 674.147 260.393 674.147C268.497 674.147 275.095 674.301 275.095 674.479Z" fill="#455A64"/>
<path d="M271.19 674.02C271.011 674.02 270.22 634.876 269.416 586.594C268.612 538.311 268.139 499.142 268.305 499.142C268.471 499.142 269.288 538.273 270.079 586.581C270.871 634.889 271.381 674.02 271.19 674.02Z" fill="#455A64"/>
<path d="M315.822 668.813C315.808 668.638 315.808 668.463 315.822 668.289V666.758C315.822 665.379 315.924 663.401 316.001 660.887C316.179 655.782 316.434 648.366 316.754 639.279C317.443 621.003 318.413 595.808 319.472 567.998C319.472 567.73 319.472 567.475 319.472 567.245V567.334C312.772 540.532 306.709 516.206 302.306 498.606L297.201 477.79C296.614 475.352 296.167 473.45 295.848 472.123C295.695 471.497 295.593 471.012 295.503 470.642C295.454 470.476 295.424 470.305 295.414 470.132C295.48 470.293 295.531 470.459 295.567 470.63C295.669 470.987 295.797 471.472 295.975 472.085C296.32 473.361 296.818 475.301 297.456 477.726C298.732 482.652 300.532 489.748 302.778 498.491C307.22 516.078 313.346 540.341 320.136 567.181V567.271C320.136 567.5 320.136 567.768 320.136 568.024C319 595.834 317.966 621.015 317.213 639.292C316.817 648.392 316.486 655.756 316.256 660.887C316.128 663.439 316.026 665.379 315.962 666.758C315.962 667.409 315.886 667.919 315.873 668.289C315.875 668.465 315.858 668.64 315.822 668.813V668.813Z" fill="#455A64"/>
<path d="M306.058 564.999C303.909 565.706 301.694 566.197 299.447 566.467C296.69 566.939 294.342 567.271 293.283 567.322V567.066C293.627 567.168 293.806 567.232 293.806 567.283C293.806 567.334 293.589 567.283 293.231 567.283H292.466L293.231 567.054C294.227 566.76 296.575 566.275 299.332 565.777C301.543 565.298 303.796 565.037 306.058 564.999Z" fill="#455A64"/>
<path d="M305.535 568.662C303.544 568.753 301.549 568.663 299.575 568.394C297.581 568.353 295.595 568.135 293.64 567.743C297.628 567.417 301.643 567.727 305.535 568.662V568.662Z" fill="#455A64"/>
<path opacity="0.2" d="M243.201 472.161C243.871 473.022 244.716 473.732 245.679 474.244C246.642 474.757 247.702 475.06 248.791 475.135C251.071 475.405 253.377 475.362 255.645 475.007C270.258 473.386 285.74 471.893 300.047 468.409C281.528 469.443 261.962 469.098 243.443 470.132L243.252 471.714" fill="black"/>
<g opacity="0.2">
<path d="M262.281 498.261L272.721 538.771L271.994 499.972L262.281 498.261Z" fill="black"/>
</g>
</svg>
